<svg aria-hidden="true" style="position: absolute; width: 0; height: 0; overflow: hidden;" version="1.1" xmlns="http://www.w3.org/2000/svg" xmlns:xlink="http://www.w3.org/1999/xlink">
<defs>
<symbol id="icon-logout-svgrepo-com" viewBox="0 0 32 32">
<path d="M26.225 14.384l-2.5-2.499c-0.188-0.188-0.495-0.188-0.684 0s-0.189 0.495 0 0.684l1.659 1.658h-7.067v1h7.066l-1.658 1.658c-0.189 0.189-0.189 0.495 0 0.684 0.094 0.094 0.218 0.142 0.342 0.142s0.248-0.047 0.342-0.142l2.5-2.501c0.091-0.091 0.142-0.214 0.142-0.342s-0.051-0.251-0.142-0.342z"></path>
<path d="M20.133 19.726c-0.276 0-0.5 0.224-0.5 0.5v5.395c0 0.521-0.416 1.105-0.972 1.105h-3.028v-21.792l-0.624-0.267-8.102-3.441h11.754c0.608 0 0.972 0.496 0.972 0.976v7.524c0 0.276 0.224 0.5 0.5 0.5s0.5-0.224 0.5-0.5v-7.524c0-1.089-0.884-1.976-1.972-1.976h-12.528c-0.261 0-0.468 0.201-0.491 0.456l-0.009-0.004v26.838l10 4.257v-4.048h3.028c1.179 0 1.972-1.088 1.972-2.105v-5.395c0-0.276-0.224-0.5-0.5-0.5zM14.633 5.62v24.607l-8-3.388v-24.612l8 3.393z"></path>
</symbol>
</defs>
</svg>
