<svg aria-hidden="true" style="position: absolute; width: 0; height: 0; overflow: hidden;" version="1.1" xmlns="http://www.w3.org/2000/svg" xmlns:xlink="http://www.w3.org/1999/xlink">
<defs>
<symbol id="icon-dot" viewBox="0 0 32 32">
<path d="M21.494 16.575c0 2.995-2.428 5.423-5.423 5.423s-5.423-2.428-5.423-5.423c0-2.995 2.428-5.423 5.423-5.423s5.423 2.428 5.423 5.423z"></path>
</symbol>
<symbol id="icon-left" viewBox="0 0 32 32">
<path stroke-linejoin="miter" stroke-linecap="butt" stroke-miterlimit="4" stroke-width="2.56" d="M6.308 7.009c-5.31 5.181-6 13.581 0.409 19.665"></path>
</symbol>
<symbol id="icon-right" viewBox="0 0 32 32">
<path stroke-linejoin="miter" stroke-linecap="butt" stroke-miterlimit="4" stroke-width="2.56" d="M25.682 6.948c5.261 5.181 5.945 13.581-0.406 19.665"></path>
</symbol>
<symbol id="icon-ring" viewBox="0 0 32 32">
<path stroke-linejoin="miter" stroke-linecap="butt" stroke-miterlimit="4" stroke-width="3.2" d="M25.965 16.748c-0.069 5.495-4.58 9.893-10.075 9.824s-9.893-4.58-9.824-10.075c0.069-5.495 4.58-9.893 10.075-9.824s9.893 4.58 9.824 10.075z"></path>
</symbol>
</defs>
</svg>
