<svg
  aria-hidden="true"
  style="position: absolute; width: 0; height: 0; overflow: hidden;"
  version="1.1"
  xmlns="http://www.w3.org/2000/svg"
  xmlns:xlink="http://www.w3.org/1999/xlink"
>
<defs>
<symbol id="icon-heart" viewBox="0 0 34 32">
<path
        d="M17.231 31.705l-2.412-2.412c-8.96-7.926-14.818-13.268-14.818-19.815 0-5.342 4.135-9.477 9.477-9.477 2.929 0 5.858 1.378 7.754 3.618 1.895-2.24 4.825-3.618 7.754-3.618 5.342 0 9.477 4.135 9.477 9.477 0 6.548-5.858 11.889-14.818 19.815l-2.412 2.412z"
      />
</symbol>
<symbol id="icon-film" viewBox="0 0 32 32">
<path
        fill="none"
        stroke="#818181"
        style="stroke: var(--color1, #818181)"
        stroke-linejoin="round"
        stroke-linecap="round"
        stroke-miterlimit="4"
        stroke-width="2.6667"
        d="M26.427 2.667h-20.853c-1.605 0-2.907 1.301-2.907 2.907v20.853c0 1.605 1.301 2.907 2.907 2.907h20.853c1.605 0 2.907-1.301 2.907-2.907v-20.853c0-1.605-1.301-2.907-2.907-2.907z"
      />
<path
        fill="none"
        stroke="#818181"
        style="stroke: var(--color1, #818181)"
        stroke-linejoin="round"
        stroke-linecap="round"
        stroke-miterlimit="4"
        stroke-width="2.6667"
        d="M9.333 2.667v26.667"
      />
<path
        fill="none"
        stroke="#818181"
        style="stroke: var(--color1, #818181)"
        stroke-linejoin="round"
        stroke-linecap="round"
        stroke-miterlimit="4"
        stroke-width="2.6667"
        d="M22.667 2.667v26.667"
      />
<path
        fill="none"
        stroke="#818181"
        style="stroke: var(--color1, #818181)"
        stroke-linejoin="round"
        stroke-linecap="round"
        stroke-miterlimit="4"
        stroke-width="2.6667"
        d="M2.667 16h26.667"
      />
<path
        fill="none"
        stroke="#818181"
        style="stroke: var(--color1, #818181)"
        stroke-linejoin="round"
        stroke-linecap="round"
        stroke-miterlimit="4"
        stroke-width="2.6667"
        d="M2.667 9.333h6.667"
      />
<path
        fill="none"
        stroke="#818181"
        style="stroke: var(--color1, #818181)"
        stroke-linejoin="round"
        stroke-linecap="round"
        stroke-miterlimit="4"
        stroke-width="2.6667"
        d="M2.667 22.667h6.667"
      />
<path
        fill="none"
        stroke="#818181"
        style="stroke: var(--color1, #818181)"
        stroke-linejoin="round"
        stroke-linecap="round"
        stroke-miterlimit="4"
        stroke-width="2.6667"
        d="M22.667 22.667h6.667"
      />
<path
        fill="none"
        stroke="#818181"
        style="stroke: var(--color1, #818181)"
        stroke-linejoin="round"
        stroke-linecap="round"
        stroke-miterlimit="4"
        stroke-width="2.6667"
        d="M22.667 9.333h6.667"
      />
</symbol>
<symbol id="icon-user" viewBox="0 0 32 32">
<path
        d="M9.526 19.010c-0.181-0.302-0.572-0.401-0.874-0.22-2.762 1.65-4.776 4.383-5.525 7.498-0.082 0.342 0.129 0.686 0.471 0.769 0.050 0.012 0.1 0.018 0.15 0.018 0.288 0 0.549-0.196 0.619-0.489 0.669-2.784 2.469-5.226 4.939-6.702 0.302-0.181 0.401-0.572 0.22-0.874z"
      />
<path
        d="M14.801 17.098c-0.94 0-1.876 0.109-2.782 0.324-0.343 0.081-0.554 0.425-0.473 0.767 0.070 0.293 0.331 0.49 0.62 0.49 0.049 0 0.098-0.006 0.148-0.017 0.81-0.192 1.647-0.29 2.488-0.29 0.352 0 0.637-0.285 0.637-0.637s-0.285-0.637-0.637-0.637z"
      />
<path
        d="M25.301 19.257c-0.105-0.112-0.212-0.224-0.321-0.333-1.86-1.86-4.14-3.148-6.625-3.776 2.628-1.31 4.438-4.026 4.438-7.156-0-4.406-3.585-7.991-7.991-7.991s-7.991 3.585-7.991 7.991c0 3.131 1.81 5.846 4.438 7.156-2.486 0.628-4.765 1.916-6.625 3.776-2.719 2.719-4.216 6.334-4.216 10.179 0 0.352 0.285 0.637 0.637 0.637h19.317c1.17 1.381 2.916 2.26 4.863 2.26 3.514 0 6.372-2.858 6.372-6.372 0-3.487-2.816-6.329-6.294-6.371zM8.084 7.991c0-3.703 3.013-6.716 6.716-6.716s6.716 3.013 6.716 6.716c0 3.703-3.013 6.716-6.716 6.716s-6.716-3.013-6.716-6.716zM1.696 28.465c0.334-6.94 6.084-12.483 13.105-12.483 3.418 0 6.535 1.315 8.873 3.464-2.767 0.694-4.822 3.202-4.822 6.181 0 1.019 0.241 1.983 0.668 2.837h-17.823zM25.223 30.725c-2.811 0-5.097-2.287-5.097-5.097s2.287-5.097 5.097-5.097c2.811 0 5.097 2.287 5.097 5.097s-2.287 5.097-5.097 5.097z"
      />
<path
        d="M28.562 25.286l-2.055-2.055c-0.249-0.249-0.653-0.249-0.902 0s-0.249 0.653 0 0.902l0.974 0.974h-3.966c-0.352 0-0.637 0.285-0.637 0.637s0.285 0.637 0.637 0.637h3.952l-0.96 0.96c-0.249 0.249-0.249 0.653 0 0.901 0.125 0.125 0.288 0.187 0.451 0.187s0.326-0.062 0.451-0.187l2.055-2.055c0.119-0.119 0.187-0.282 0.187-0.451s-0.067-0.331-0.187-0.451z"
      />
</symbol>
<symbol id="icon-magnifier" viewBox="0 0 32 32">
<path
        fill="none"
        stroke="#fff"
        style="stroke: var(--color1, #fff)"
        stroke-linejoin="round"
        stroke-linecap="round"
        stroke-miterlimit="4"
        stroke-width="2.6667"
        d="M14.667 25.333c5.891 0 10.667-4.776 10.667-10.667s-4.776-10.667-10.667-10.667c-5.891 0-10.667 4.776-10.667 10.667s4.776 10.667 10.667 10.667z"
      />
<path
        fill="none"
        stroke="#fff"
        style="stroke: var(--color1, #fff)"
        stroke-linejoin="round"
        stroke-linecap="round"
        stroke-miterlimit="4"
        stroke-width="2.6667"
        d="M28 28.001l-5.8-5.8"
      />
</symbol>
<symbol id="icon-close-modal" viewBox="0 0 32 32">
<path stroke-linejoin="miter" stroke-linecap="butt" stroke-miterlimit="4" stroke-width="4" d="M2 2l28 28"></path>
<path stroke-linejoin="miter" stroke-linecap="butt" stroke-miterlimit="4" stroke-width="4" d="M2 30l28-28"></path>
<symbol id="icon-search" viewBox="0 0 32 32">
<path fill="none" stroke="#fff" style="stroke: var(--color1, #fff)" stroke-linejoin="round" stroke-linecap="round" stroke-miterlimit="4" stroke-width="2.6667" d="M14.667 25.333c5.891 0 10.667-4.776 10.667-10.667s-4.776-10.667-10.667-10.667c-5.891 0-10.667 4.776-10.667 10.667s4.776 10.667 10.667 10.667z"></path>
<path fill="none" stroke="#fff" style="stroke: var(--color1, #fff)" stroke-linejoin="round" stroke-linecap="round" stroke-miterlimit="4" stroke-width="2.6667" d="M28 28.001l-5.8-5.8"></path>
</symbol>
<symbol id="icon-arrow-up" viewBox="0 0 32 32">
<path d="M16 30c0.552 0 1-0.448 1-1v0-23.586l6.292 6.294c0.181 0.181 0.431 0.293 0.708 0.293 0.553 0 1.001-0.448 1.001-1.001 0-0.277-0.112-0.527-0.293-0.708v0l-8-8c-0.181-0.181-0.431-0.294-0.708-0.294s-0.527 0.112-0.708 0.294l-8 8c-0.181 0.181-0.293 0.431-0.293 0.708 0 0.553 0.448 1.001 1.001 1.001 0.276 0 0.527-0.112 0.708-0.293v0l6.292-6.294v23.586c0 0.552 0.448 1 1 1v0z"></path>
</symbol>
<symbol id="icon-bell" viewBox="0 0 32 32">
<path d="M16 32c2.209 0 4-1.791 4-4v0h-8c0 2.209 1.791 4 4 4v0zM16 3.836l-1.594 0.322c-3.681 0.77-6.406 3.988-6.406 7.842v0c0 1.256-0.268 4.394-0.918 7.484-0.32 1.534-0.752 3.132-1.326 4.516h20.488c-0.574-1.384-1.004-2.98-1.326-4.516-0.65-3.090-0.918-6.228-0.918-7.484-0.001-3.854-2.726-7.071-6.354-7.831l-0.052-0.009-1.594-0.326zM28.44 24c0.446 0.894 0.962 1.602 1.56 2h-28c0.598-0.398 1.114-1.106 1.56-2 1.8-3.6 2.44-10.24 2.44-12 0-4.84 3.44-8.88 8.010-9.802-0.006-0.060-0.010-0.129-0.010-0.2 0-1.105 0.895-2 2-2s2 0.895 2 2c0 0.070-0.004 0.14-0.011 0.208l0.001-0.009c4.602 0.961 8.009 4.983 8.010 9.802v0c0 1.76 0.64 8.4 2.44 12z"></path>
</symbol>
<symbol id="icon-x" viewBox="0 0 32 32">
<path d="M9.292 9.292c0.181-0.181 0.431-0.294 0.708-0.294s0.527 0.112 0.708 0.294l5.292 5.294 5.292-5.294c0.181-0.181 0.431-0.293 0.708-0.293 0.553 0 1.001 0.448 1.001 1.001 0 0.277-0.112 0.527-0.293 0.708v0l-5.294 5.292 5.294 5.292c0.181 0.181 0.293 0.431 0.293 0.708 0 0.553-0.448 1.001-1.001 1.001-0.276 0-0.527-0.112-0.708-0.293v0l-5.292-5.294-5.292 5.294c-0.181 0.181-0.431 0.293-0.708 0.293-0.553 0-1.001-0.448-1.001-1.001 0-0.276 0.112-0.527 0.293-0.708v0l5.294-5.292-5.294-5.292c-0.181-0.181-0.294-0.431-0.294-0.708s0.112-0.527 0.294-0.708l0-0z"></path>
</symbol>
<symbol id="icon-arrow-left" viewBox="0 0 32 32">
<path stroke-linejoin="round" stroke-linecap="round" stroke-miterlimit="4" stroke-width="2.6667" d="M25.333 16h-18.667"></path>
<path stroke-linejoin="round" stroke-linecap="round" stroke-miterlimit="4" stroke-width="2.6667" d="M16 25.333l-9.333-9.333 9.333-9.333"></path>
</symbol>
</defs>
</svg>
