<svg
  aria-hidden="true"
  style="position: absolute; width: 0; height: 0; overflow: hidden;"
  version="1.1"
  xmlns="http://www.w3.org/2000/svg"
  xmlns:xlink="http://www.w3.org/1999/xlink"
>
<defs>
<symbol id="icon-heart" viewBox="0 0 34 32">
<path
        d="M17.231 31.705l-2.412-2.412c-8.96-7.926-14.818-13.268-14.818-19.815 0-5.342 4.135-9.477 9.477-9.477 2.929 0 5.858 1.378 7.754 3.618 1.895-2.24 4.825-3.618 7.754-3.618 5.342 0 9.477 4.135 9.477 9.477 0 6.548-5.858 11.889-14.818 19.815l-2.412 2.412z"
      />
</symbol>
<symbol id="icon-film" viewBox="0 0 32 32">
<path
        fill="none"
        stroke="#818181"
        style="stroke: var(--color1, #818181)"
        stroke-linejoin="round"
        stroke-linecap="round"
        stroke-miterlimit="4"
        stroke-width="2.6667"
        d="M26.427 2.667h-20.853c-1.605 0-2.907 1.301-2.907 2.907v20.853c0 1.605 1.301 2.907 2.907 2.907h20.853c1.605 0 2.907-1.301 2.907-2.907v-20.853c0-1.605-1.301-2.907-2.907-2.907z"
      />
<path
        fill="none"
        stroke="#818181"
        style="stroke: var(--color1, #818181)"
        stroke-linejoin="round"
        stroke-linecap="round"
        stroke-miterlimit="4"
        stroke-width="2.6667"
        d="M9.333 2.667v26.667"
      />
<path
        fill="none"
        stroke="#818181"
        style="stroke: var(--color1, #818181)"
        stroke-linejoin="round"
        stroke-linecap="round"
        stroke-miterlimit="4"
        stroke-width="2.6667"
        d="M22.667 2.667v26.667"
      />
<path
        fill="none"
        stroke="#818181"
        style="stroke: var(--color1, #818181)"
        stroke-linejoin="round"
        stroke-linecap="round"
        stroke-miterlimit="4"
        stroke-width="2.6667"
        d="M2.667 16h26.667"
      />
<path
        fill="none"
        stroke="#818181"
        style="stroke: var(--color1, #818181)"
        stroke-linejoin="round"
        stroke-linecap="round"
        stroke-miterlimit="4"
        stroke-width="2.6667"
        d="M2.667 9.333h6.667"
      />
<path
        fill="none"
        stroke="#818181"
        style="stroke: var(--color1, #818181)"
        stroke-linejoin="round"
        stroke-linecap="round"
        stroke-miterlimit="4"
        stroke-width="2.6667"
        d="M2.667 22.667h6.667"
      />
<path
        fill="none"
        stroke="#818181"
        style="stroke: var(--color1, #818181)"
        stroke-linejoin="round"
        stroke-linecap="round"
        stroke-miterlimit="4"
        stroke-width="2.6667"
        d="M22.667 22.667h6.667"
      />
<path
        fill="none"
        stroke="#818181"
        style="stroke: var(--color1, #818181)"
        stroke-linejoin="round"
        stroke-linecap="round"
        stroke-miterlimit="4"
        stroke-width="2.6667"
        d="M22.667 9.333h6.667"
      />
</symbol>
<symbol id="icon-user" viewBox="0 0 32 32">
<path
        d="M9.526 19.010c-0.181-0.302-0.572-0.401-0.874-0.22-2.762 1.65-4.776 4.383-5.525 7.498-0.082 0.342 0.129 0.686 0.471 0.769 0.050 0.012 0.1 0.018 0.15 0.018 0.288 0 0.549-0.196 0.619-0.489 0.669-2.784 2.469-5.226 4.939-6.702 0.302-0.181 0.401-0.572 0.22-0.874z"
      />
<path
        d="M14.801 17.098c-0.94 0-1.876 0.109-2.782 0.324-0.343 0.081-0.554 0.425-0.473 0.767 0.070 0.293 0.331 0.49 0.62 0.49 0.049 0 0.098-0.006 0.148-0.017 0.81-0.192 1.647-0.29 2.488-0.29 0.352 0 0.637-0.285 0.637-0.637s-0.285-0.637-0.637-0.637z"
      />
<path
        d="M25.301 19.257c-0.105-0.112-0.212-0.224-0.321-0.333-1.86-1.86-4.14-3.148-6.625-3.776 2.628-1.31 4.438-4.026 4.438-7.156-0-4.406-3.585-7.991-7.991-7.991s-7.991 3.585-7.991 7.991c0 3.131 1.81 5.846 4.438 7.156-2.486 0.628-4.765 1.916-6.625 3.776-2.719 2.719-4.216 6.334-4.216 10.179 0 0.352 0.285 0.637 0.637 0.637h19.317c1.17 1.381 2.916 2.26 4.863 2.26 3.514 0 6.372-2.858 6.372-6.372 0-3.487-2.816-6.329-6.294-6.371zM8.084 7.991c0-3.703 3.013-6.716 6.716-6.716s6.716 3.013 6.716 6.716c0 3.703-3.013 6.716-6.716 6.716s-6.716-3.013-6.716-6.716zM1.696 28.465c0.334-6.94 6.084-12.483 13.105-12.483 3.418 0 6.535 1.315 8.873 3.464-2.767 0.694-4.822 3.202-4.822 6.181 0 1.019 0.241 1.983 0.668 2.837h-17.823zM25.223 30.725c-2.811 0-5.097-2.287-5.097-5.097s2.287-5.097 5.097-5.097c2.811 0 5.097 2.287 5.097 5.097s-2.287 5.097-5.097 5.097z"
      />
<path
        d="M28.562 25.286l-2.055-2.055c-0.249-0.249-0.653-0.249-0.902 0s-0.249 0.653 0 0.902l0.974 0.974h-3.966c-0.352 0-0.637 0.285-0.637 0.637s0.285 0.637 0.637 0.637h3.952l-0.96 0.96c-0.249 0.249-0.249 0.653 0 0.901 0.125 0.125 0.288 0.187 0.451 0.187s0.326-0.062 0.451-0.187l2.055-2.055c0.119-0.119 0.187-0.282 0.187-0.451s-0.067-0.331-0.187-0.451z"
      />
</symbol>
<symbol id="icon-magnifier" viewBox="0 0 32 32">
<path
        fill="none"
        stroke="#fff"
        style="stroke: var(--color1, #fff)"
        stroke-linejoin="round"
        stroke-linecap="round"
        stroke-miterlimit="4"
        stroke-width="2.6667"
        d="M14.667 25.333c5.891 0 10.667-4.776 10.667-10.667s-4.776-10.667-10.667-10.667c-5.891 0-10.667 4.776-10.667 10.667s4.776 10.667 10.667 10.667z"
      />
<path
        fill="none"
        stroke="#fff"
        style="stroke: var(--color1, #fff)"
        stroke-linejoin="round"
        stroke-linecap="round"
        stroke-miterlimit="4"
        stroke-width="2.6667"
        d="M28 28.001l-5.8-5.8"
      />
</symbol>
</defs>
</svg>
