<svg aria-hidden="true" style="position: absolute; width: 0; height: 0; overflow: hidden;" version="1.1" xmlns="http://www.w3.org/2000/svg" xmlns:xlink="http://www.w3.org/1999/xlink">
<defs>
<symbol id="icon-heart" viewBox="0 0 34 32">
<path d="M17.231 31.705l-2.412-2.412c-8.96-7.926-14.818-13.268-14.818-19.815 0-5.342 4.135-9.477 9.477-9.477 2.929 0 5.858 1.378 7.754 3.618 1.895-2.24 4.825-3.618 7.754-3.618 5.342 0 9.477 4.135 9.477 9.477 0 6.548-5.858 11.889-14.818 19.815l-2.412 2.412z"></path>
</symbol>
<symbol id="icon-close-modal" viewBox="0 0 32 32">
<path stroke-linejoin="miter" stroke-linecap="butt" stroke-miterlimit="4" stroke-width="4" d="M2 2l28 28"></path>
<path stroke-linejoin="miter" stroke-linecap="butt" stroke-miterlimit="4" stroke-width="4" d="M2 30l28-28"></path>
<symbol id="icon-search" viewBox="0 0 32 32">
<path fill="none" stroke="#fff" style="stroke: var(--color1, #fff)" stroke-linejoin="round" stroke-linecap="round" stroke-miterlimit="4" stroke-width="2.6667" d="M14.667 25.333c5.891 0 10.667-4.776 10.667-10.667s-4.776-10.667-10.667-10.667c-5.891 0-10.667 4.776-10.667 10.667s4.776 10.667 10.667 10.667z"></path>
<path fill="none" stroke="#fff" style="stroke: var(--color1, #fff)" stroke-linejoin="round" stroke-linecap="round" stroke-miterlimit="4" stroke-width="2.6667" d="M28 28.001l-5.8-5.8"></path>
</symbol>
<symbol id="icon-key" viewBox="0 0 32 32">
<path d="M27.488 11.365l-2.37-2.37c-0.581-0.581-1.532-1.532-2.113-2.113l-2.37-2.37c-0.581-0.581-1.616-0.684-2.3-0.228l-6.479 4.319c-0.684 0.456-0.943 1.431-0.575 2.165l1.652 3.304c0.050 0.101 0.109 0.209 0.173 0.32l-8.356 8.356-0.75 5.25h4.5v-1.5h3v-3h3v-3h3v-1.668c0.15 0.090 0.294 0.169 0.426 0.235l3.304 1.652c0.735 0.368 1.709 0.109 2.166-0.575l4.32-6.479c0.456-0.684 0.354-1.719-0.228-2.3zM7.53 24.030l-1.061-1.061 7.302-7.302 1.061 1.061-7.302 7.302zM25.493 13.932l-1.061 1.061c-0.292 0.292-0.769 0.292-1.061 0l-6.364-6.364c-0.292-0.292-0.292-0.769 0-1.061l1.061-1.061c0.292-0.292 0.769-0.292 1.061 0l6.364 6.364c0.292 0.292 0.292 0.769 0 1.061z"></path>
</symbol>
<symbol id="icon-person" viewBox="0 0 32 32">
<path d="M16 16c3.107 0 5.625-2.518 5.625-5.625s-2.518-5.625-5.625-5.625v0c-3.107 0-5.625 2.518-5.625 5.625s2.518 5.625 5.625 5.625v0zM16 18.813c-3.756 0-11.25 1.884-11.25 5.625v1.406c0 0.773 0.632 1.406 1.406 1.406h19.688c0.773 0 1.406-0.633 1.406-1.406v-1.406c0-3.741-7.496-5.625-11.25-5.625z"></path>
</symbol>
<symbol id="icon-email" viewBox="0 0 32 32">
<path d="M25.924 6.085h-19.84c-1.364 0-2.467 1.116-2.467 2.48l-0.013 14.88c0 1.364 1.116 2.48 2.48 2.48h19.84c1.364 0 2.48-1.116 2.48-2.48v-14.88c0-1.364-1.116-2.48-2.48-2.48zM25.428 11.355l-8.766 5.479c-0.187 0.117-0.415 0.186-0.658 0.186s-0.471-0.069-0.663-0.189l0.005 0.003-8.766-5.479c-0.312-0.187-0.518-0.523-0.518-0.907 0-0.582 0.472-1.053 1.053-1.053 0.216 0 0.417 0.065 0.585 0.177l8.304 5.192 8.308-5.196c0.163-0.109 0.364-0.175 0.581-0.175 0.582 0 1.053 0.472 1.053 1.053 0 0.384-0.206 0.72-0.513 0.904l-0.005 0.003z"></path>
</symbol>
<symbol id="icon-exit" viewBox="0 0 32 32">
<path d="M24 20v-4h-10v-4h10v-4l6 6zM22 18v8h-10v6l-12-6v-26h22v10h-2v-8h-16l8 4v18h8v-6z"></path>
</symbol>
</defs>
</svg>
