<svg aria-hidden="true" style="position: absolute; width: 0; height: 0; overflow: hidden;" version="1.1" xmlns="http://www.w3.org/2000/svg" xmlns:xlink="http://www.w3.org/1999/xlink">
<defs>
<symbol id="icon-heart" viewBox="0 0 34 32">
<path d="M17.231 31.705l-2.412-2.412c-8.96-7.926-14.818-13.268-14.818-19.815 0-5.342 4.135-9.477 9.477-9.477 2.929 0 5.858 1.378 7.754 3.618 1.895-2.24 4.825-3.618 7.754-3.618 5.342 0 9.477 4.135 9.477 9.477 0 6.548-5.858 11.889-14.818 19.815l-2.412 2.412z"/>
</symbol>
<symbol id="icon-film" viewBox="0 0 32 32">
<path fill="none" stroke="#818181" style="stroke: var(--color1, #818181)" stroke-linejoin="round" stroke-linecap="round" stroke-miterlimit="4" stroke-width="2.6667" d="M26.427 2.667h-20.853c-1.605 0-2.907 1.301-2.907 2.907v20.853c0 1.605 1.301 2.907 2.907 2.907h20.853c1.605 0 2.907-1.301 2.907-2.907v-20.853c0-1.605-1.301-2.907-2.907-2.907z"/>
<path fill="none" stroke="#818181" style="stroke: var(--color1, #818181)" stroke-linejoin="round" stroke-linecap="round" stroke-miterlimit="4" stroke-width="2.6667" d="M9.333 2.667v26.667" />
<path fill="none" stroke="#818181" style="stroke: var(--color1, #818181)" stroke-linejoin="round" stroke-linecap="round" stroke-miterlimit="4" stroke-width="2.6667" d="M22.667 2.667v26.667" />
<path fill="none" stroke="#818181" style="stroke: var(--color1, #818181)" stroke-linejoin="round" stroke-linecap="round" stroke-miterlimit="4" stroke-width="2.6667" d="M2.667 16h26.667" />
<path fill="none" stroke="#818181" style="stroke: var(--color1, #818181)" stroke-linejoin="round" stroke-linecap="round" stroke-miterlimit="4" stroke-width="2.6667" d="M2.667 9.333h6.667" />
<path fill="none" stroke="#818181" style="stroke: var(--color1, #818181)" stroke-linejoin="round" stroke-linecap="round" stroke-miterlimit="4" stroke-width="2.6667" d="M2.667 22.667h6.667" />
<path fill="none" stroke="#818181" style="stroke: var(--color1, #818181)" stroke-linejoin="round" stroke-linecap="round" stroke-miterlimit="4" stroke-width="2.6667" d="M22.667 22.667h6.667" />
<path fill="none" stroke="#818181" style="stroke: var(--color1, #818181)" stroke-linejoin="round" stroke-linecap="round" stroke-miterlimit="4" stroke-width="2.6667" d="M22.667 9.333h6.667" />
</symbol>
<symbol id="icon-user" viewBox="0 0 32 32">
<path d="M9.526 19.010c-0.181-0.302-0.572-0.401-0.874-0.22-2.762 1.65-4.776 4.383-5.525 7.498-0.082 0.342 0.129 0.686 0.471 0.769 0.050 0.012 0.1 0.018 0.15 0.018 0.288 0 0.549-0.196 0.619-0.489 0.669-2.784 2.469-5.226 4.939-6.702 0.302-0.181 0.401-0.572 0.22-0.874z"/>
<path d="M14.801 17.098c-0.94 0-1.876 0.109-2.782 0.324-0.343 0.081-0.554 0.425-0.473 0.767 0.070 0.293 0.331 0.49 0.62 0.49 0.049 0 0.098-0.006 0.148-0.017 0.81-0.192 1.647-0.29 2.488-0.29 0.352 0 0.637-0.285 0.637-0.637s-0.285-0.637-0.637-0.637z"/>
<path d="M25.301 19.257c-0.105-0.112-0.212-0.224-0.321-0.333-1.86-1.86-4.14-3.148-6.625-3.776 2.628-1.31 4.438-4.026 4.438-7.156-0-4.406-3.585-7.991-7.991-7.991s-7.991 3.585-7.991 7.991c0 3.131 1.81 5.846 4.438 7.156-2.486 0.628-4.765 1.916-6.625 3.776-2.719 2.719-4.216 6.334-4.216 10.179 0 0.352 0.285 0.637 0.637 0.637h19.317c1.17 1.381 2.916 2.26 4.863 2.26 3.514 0 6.372-2.858 6.372-6.372 0-3.487-2.816-6.329-6.294-6.371zM8.084 7.991c0-3.703 3.013-6.716 6.716-6.716s6.716 3.013 6.716 6.716c0 3.703-3.013 6.716-6.716 6.716s-6.716-3.013-6.716-6.716zM1.696 28.465c0.334-6.94 6.084-12.483 13.105-12.483 3.418 0 6.535 1.315 8.873 3.464-2.767 0.694-4.822 3.202-4.822 6.181 0 1.019 0.241 1.983 0.668 2.837h-17.823zM25.223 30.725c-2.811 0-5.097-2.287-5.097-5.097s2.287-5.097 5.097-5.097c2.811 0 5.097 2.287 5.097 5.097s-2.287 5.097-5.097 5.097z"/>
<path d="M28.562 25.286l-2.055-2.055c-0.249-0.249-0.653-0.249-0.902 0s-0.249 0.653 0 0.902l0.974 0.974h-3.966c-0.352 0-0.637 0.285-0.637 0.637s0.285 0.637 0.637 0.637h3.952l-0.96 0.96c-0.249 0.249-0.249 0.653 0 0.901 0.125 0.125 0.288 0.187 0.451 0.187s0.326-0.062 0.451-0.187l2.055-2.055c0.119-0.119 0.187-0.282 0.187-0.451s-0.067-0.331-0.187-0.451z"/>
</symbol>
<symbol id="icon-magnifier" viewBox="0 0 32 32">
<path fill="none" stroke="#fff" style="stroke: var(--color1, #fff)" stroke-linejoin="round" stroke-linecap="round" stroke-miterlimit="4" stroke-width="2.6667" d="M14.667 25.333c5.891 0 10.667-4.776 10.667-10.667s-4.776-10.667-10.667-10.667c-5.891 0-10.667 4.776-10.667 10.667s4.776 10.667 10.667 10.667z"/>
<path fill="none" stroke="#fff" style="stroke: var(--color1, #fff)" stroke-linejoin="round" stroke-linecap="round" stroke-miterlimit="4" stroke-width="2.6667" d="M28 28.001l-5.8-5.8"/>
</symbol>
<symbol id="icon-close-modal" viewBox="0 0 32 32">
<path stroke-linejoin="miter" stroke-linecap="butt" stroke-miterlimit="4" stroke-width="4" d="M2 2l28 28"></path>
<path stroke-linejoin="miter" stroke-linecap="butt" stroke-miterlimit="4" stroke-width="4" d="M2 30l28-28"></path>
</symbol>
<symbol id="icon-search" viewBox="0 0 32 32">
<path fill="none" stroke="#fff" style="stroke: var(--color1, #fff)" stroke-linejoin="round" stroke-linecap="round" stroke-miterlimit="4" stroke-width="2.6667" d="M14.667 25.333c5.891 0 10.667-4.776 10.667-10.667s-4.776-10.667-10.667-10.667c-5.891 0-10.667 4.776-10.667 10.667s4.776 10.667 10.667 10.667z"></path>
<path fill="none" stroke="#fff" style="stroke: var(--color1, #fff)" stroke-linejoin="round" stroke-linecap="round" stroke-miterlimit="4" stroke-width="2.6667" d="M28 28.001l-5.8-5.8"></path>
</symbol>
<symbol id="icon-arrow-up" viewBox="0 0 32 32">
<path d="M16 30c0.552 0 1-0.448 1-1v0-23.586l6.292 6.294c0.181 0.181 0.431 0.293 0.708 0.293 0.553 0 1.001-0.448 1.001-1.001 0-0.277-0.112-0.527-0.293-0.708v0l-8-8c-0.181-0.181-0.431-0.294-0.708-0.294s-0.527 0.112-0.708 0.294l-8 8c-0.181 0.181-0.293 0.431-0.293 0.708 0 0.553 0.448 1.001 1.001 1.001 0.276 0 0.527-0.112 0.708-0.293v0l6.292-6.294v23.586c0 0.552 0.448 1 1 1v0z"></path>
</symbol>
<symbol id="icon-bell" viewBox="0 0 32 32">
<path d="M16 32c2.209 0 4-1.791 4-4v0h-8c0 2.209 1.791 4 4 4v0zM16 3.836l-1.594 0.322c-3.681 0.77-6.406 3.988-6.406 7.842v0c0 1.256-0.268 4.394-0.918 7.484-0.32 1.534-0.752 3.132-1.326 4.516h20.488c-0.574-1.384-1.004-2.98-1.326-4.516-0.65-3.090-0.918-6.228-0.918-7.484-0.001-3.854-2.726-7.071-6.354-7.831l-0.052-0.009-1.594-0.326zM28.44 24c0.446 0.894 0.962 1.602 1.56 2h-28c0.598-0.398 1.114-1.106 1.56-2 1.8-3.6 2.44-10.24 2.44-12 0-4.84 3.44-8.88 8.010-9.802-0.006-0.060-0.010-0.129-0.010-0.2 0-1.105 0.895-2 2-2s2 0.895 2 2c0 0.070-0.004 0.14-0.011 0.208l0.001-0.009c4.602 0.961 8.009 4.983 8.010 9.802v0c0 1.76 0.64 8.4 2.44 12z"></path>
</symbol>
<symbol id="icon-x" viewBox="0 0 32 32">
<path d="M9.292 9.292c0.181-0.181 0.431-0.294 0.708-0.294s0.527 0.112 0.708 0.294l5.292 5.294 5.292-5.294c0.181-0.181 0.431-0.293 0.708-0.293 0.553 0 1.001 0.448 1.001 1.001 0 0.277-0.112 0.527-0.293 0.708v0l-5.294 5.292 5.294 5.292c0.181 0.181 0.293 0.431 0.293 0.708 0 0.553-0.448 1.001-1.001 1.001-0.276 0-0.527-0.112-0.708-0.293v0l-5.292-5.294-5.292 5.294c-0.181 0.181-0.431 0.293-0.708 0.293-0.553 0-1.001-0.448-1.001-1.001 0-0.276 0.112-0.527 0.293-0.708v0l5.294-5.292-5.294-5.292c-0.181-0.181-0.294-0.431-0.294-0.708s0.112-0.527 0.294-0.708l0-0z"></path>
</symbol>
<symbol id="icon-arrow-left" viewBox="0 0 32 32">
<path d="M12.586 27.414l-10-10c-0.781-0.781-0.781-2.047 0-2.828l10-10c0.781-0.781 2.047-0.781 2.828 0s0.781 2.047 0 2.828l-6.586 6.586h19.172c1.105 0 2 0.895 2 2s-0.895 2-2 2h-19.172l6.586 6.586c0.39 0.39 0.586 0.902 0.586 1.414s-0.195 1.024-0.586 1.414c-0.781 0.781-2.047 0.781-2.828 0z"></path>
</symbol>
<symbol id="icon-key" viewBox="0 0 32 32">
<path d="M27.488 11.365l-2.37-2.37c-0.581-0.581-1.532-1.532-2.113-2.113l-2.37-2.37c-0.581-0.581-1.616-0.684-2.3-0.228l-6.479 4.319c-0.684 0.456-0.943 1.431-0.575 2.165l1.652 3.304c0.050 0.101 0.109 0.209 0.173 0.32l-8.356 8.356-0.75 5.25h4.5v-1.5h3v-3h3v-3h3v-1.668c0.15 0.090 0.294 0.169 0.426 0.235l3.304 1.652c0.735 0.368 1.709 0.109 2.166-0.575l4.32-6.479c0.456-0.684 0.354-1.719-0.228-2.3zM7.53 24.030l-1.061-1.061 7.302-7.302 1.061 1.061-7.302 7.302zM25.493 13.932l-1.061 1.061c-0.292 0.292-0.769 0.292-1.061 0l-6.364-6.364c-0.292-0.292-0.292-0.769 0-1.061l1.061-1.061c0.292-0.292 0.769-0.292 1.061 0l6.364 6.364c0.292 0.292 0.292 0.769 0 1.061z"></path>
</symbol>
<symbol id="icon-exit" viewBox="0 0 32 32">
<path d="M24 20v-4h-10v-4h10v-4l6 6zM22 18v8h-10v6l-12-6v-26h22v10h-2v-8h-16l8 4v18h8v-6z"></path>
</symbol>
<symbol id="icon-person" viewBox="0 0 32 32">
<path d="M16 16c3.107 0 5.625-2.518 5.625-5.625s-2.518-5.625-5.625-5.625v0c-3.107 0-5.625 2.518-5.625 5.625s2.518 5.625 5.625 5.625v0zM16 18.813c-3.756 0-11.25 1.884-11.25 5.625v1.406c0 0.773 0.632 1.406 1.406 1.406h19.688c0.773 0 1.406-0.633 1.406-1.406v-1.406c0-3.741-7.496-5.625-11.25-5.625z"></path>
</symbol>
<symbol id="icon-email" viewBox="0 0 32 32">
<path d="M25.924 6.085h-19.84c-1.364 0-2.467 1.116-2.467 2.48l-0.013 14.88c0 1.364 1.116 2.48 2.48 2.48h19.84c1.364 0 2.48-1.116 2.48-2.48v-14.88c0-1.364-1.116-2.48-2.48-2.48zM25.428 11.355l-8.766 5.479c-0.187 0.117-0.415 0.186-0.658 0.186s-0.471-0.069-0.663-0.189l0.005 0.003-8.766-5.479c-0.312-0.187-0.518-0.523-0.518-0.907 0-0.582 0.472-1.053 1.053-1.053 0.216 0 0.417 0.065 0.585 0.177l8.304 5.192 8.308-5.196c0.163-0.109 0.364-0.175 0.581-0.175 0.582 0 1.053 0.472 1.053 1.053 0 0.384-0.206 0.72-0.513 0.904l-0.005 0.003z"></path>
</symbol>
<symbol id="icon-gear-fill" viewBox="0 0 32 32">
<path d="M18.81 2.1c-0.826-2.8-4.794-2.8-5.62 0l-0.2 0.68c-0.369 1.224-1.486 2.101-2.809 2.101-0.514 0-0.997-0.132-1.416-0.365l0.015 0.008-0.62-0.34c-2.566-1.396-5.372 1.41-3.974 3.974l0.338 0.622c0.892 1.64 0.046 3.682-1.744 4.21l-0.68 0.2c-2.8 0.826-2.8 4.794 0 5.62l0.68 0.2c1.224 0.369 2.101 1.486 2.101 2.809 0 0.514-0.132 0.997-0.365 1.416l0.008-0.015-0.34 0.62c-1.396 2.566 1.41 5.372 3.974 3.974l0.622-0.338c0.405-0.225 0.887-0.357 1.401-0.357 1.322 0 2.44 0.877 2.803 2.080l0.005 0.021 0.2 0.68c0.826 2.8 4.794 2.8 5.62 0l0.2-0.68c0.369-1.224 1.486-2.101 2.809-2.101 0.514 0 0.997 0.132 1.416 0.365l-0.015-0.008 0.62 0.34c2.566 1.396 5.372-1.41 3.974-3.974l-0.338-0.622c-0.225-0.405-0.357-0.887-0.357-1.401 0-1.322 0.877-2.44 2.080-2.803l0.021-0.005 0.68-0.2c2.8-0.826 2.8-4.794 0-5.62l-0.68-0.2c-1.224-0.369-2.101-1.486-2.101-2.809 0-0.514 0.132-0.997 0.365-1.416l-0.008 0.015 0.34-0.62c1.396-2.566-1.41-5.372-3.974-3.974l-0.622 0.338c-0.405 0.225-0.887 0.357-1.401 0.357-1.322 0-2.44-0.877-2.803-2.080l-0.005-0.021-0.2-0.68zM16 21.86c-3.236 0-5.86-2.624-5.86-5.86s2.624-5.86 5.86-5.86v0c3.235 0 5.858 2.623 5.858 5.858s-2.623 5.858-5.858 5.858v0z"></path>
</symbol>
<symbol id="icon-playfilter" viewBox="0 0 32 32">
<path d="M6 4l20 12-20 12z"></path>
</symbol>
<symbol id="icon-logout" viewBox="0 0 32 32">
<path d="M26.225 14.384l-2.5-2.499c-0.188-0.188-0.495-0.188-0.684 0s-0.189 0.495 0 0.684l1.659 1.658h-7.067v1h7.066l-1.658 1.658c-0.189 0.189-0.189 0.495 0 0.684 0.094 0.094 0.218 0.142 0.342 0.142s0.248-0.047 0.342-0.142l2.5-2.501c0.091-0.091 0.142-0.214 0.142-0.342s-0.051-0.251-0.142-0.342z"></path>
<path d="M20.133 19.726c-0.276 0-0.5 0.224-0.5 0.5v5.395c0 0.521-0.416 1.105-0.972 1.105h-3.028v-21.792l-0.624-0.267-8.102-3.441h11.754c0.608 0 0.972 0.496 0.972 0.976v7.524c0 0.276 0.224 0.5 0.5 0.5s0.5-0.224 0.5-0.5v-7.524c0-1.089-0.884-1.976-1.972-1.976h-12.528c-0.261 0-0.468 0.201-0.491 0.456l-0.009-0.004v26.838l10 4.257v-4.048h3.028c1.179 0 1.972-1.088 1.972-2.105v-5.395c0-0.276-0.224-0.5-0.5-0.5zM14.633 5.62v24.607l-8-3.388v-24.612l8 3.393z"></path>
</symbol>
<symbol id="icon-back" viewBox="0 0 32 32">
<path d="M23.808 32c3.554-6.439 4.153-16.26-9.808-15.932v7.932l-12-12 12-12v7.762c16.718-0.436 18.58 14.757 9.808 24.238z"></path>
</symbol>
<symbol id="icon-down-arrow" viewBox="0 0 32 32">
<path d="M31.574 7.699c-0.568-0.568-1.489-0.568-2.057 0l-13.517 13.517-13.517-13.517c-0.568-0.568-1.489-0.568-2.057 0s-0.568 1.489 0 2.057l14.546 14.545c0.273 0.273 0.643 0.426 1.028 0.426s0.756-0.153 1.028-0.426l14.545-14.545c0.568-0.568 0.568-1.489 0-2.057z"></path>
</symbol>
</defs>
</svg>
